<svg xmlns="http://www.w3.org/2000/svg" width="16" height="16" fill="currentColor"><rect id="backgroundrect" width="100%" height="100%" x="0" y="0" fill="none" stroke="none"/>
  
  
  
<g class="currentLayer" style=""><title>Layer 1</title><path d="M7.5 3.75a.75.75 0 1 1-1.5 0 .75.75 0 0 1 1.5 0zm-.861 1.542 1.33.886 1.854-1.855a.25.25 0 0 1 .289-.047L11 4.75V7a.5.5 0 0 1-.5.5h-5A.5.5 0 0 1 5 7v-.5s1.54-1.274 1.639-1.208zM5 9.5a.5.5 0 0 1 .5-.5h5a.5.5 0 0 1 0 1h-5a.5.5 0 0 1-.5-.5zm0 2a.5.5 0 0 1 .5-.5h2a.5.5 0 0 1 0 1h-2a.5.5 0 0 1-.5-.5z" id="svg_1" class="selected" fill="#ffffff" fill-opacity="1"/><path d="M3 0h10a2 2 0 0 1 2 2v12a2 2 0 0 1-2 2H3a2 2 0 0 1-2-2v-1h1v1a1 1 0 0 0 1 1h10a1 1 0 0 0 1-1V2a1 1 0 0 0-1-1H3a1 1 0 0 0-1 1v1H1V2a2 2 0 0 1 2-2z" id="svg_2" class="selected" fill="#ffffff" fill-opacity="1"/><path d="M1 5v-.5a.5.5 0 0 1 1 0V5h.5a.5.5 0 0 1 0 1h-2a.5.5 0 0 1 0-1H1zm0 3v-.5a.5.5 0 0 1 1 0V8h.5a.5.5 0 0 1 0 1h-2a.5.5 0 0 1 0-1H1zm0 3v-.5a.5.5 0 0 1 1 0v.5h.5a.5.5 0 0 1 0 1h-2a.5.5 0 0 1 0-1H1z" id="svg_3" class="selected" fill="#ffffff" fill-opacity="1"/></g></svg>